<svg width="667" height="308" viewBox="0 0 667 308" fill="none" xmlns="http://www.w3.org/2000/svg">
<g style="mix-blend-mode:color-dodge">
<path d="M209.8 2.39998L177.1 2.89998L148.4 3.29998V7.49998C170.2 7.19998 175.3 13.9 175.3 27.4V78.6C175.3 100.2 166.5 119.2 140.6 119.6C114.7 120 108.4 101.5 108.4 79.4V25.8C108.4 10.1 114 7.89998 141.9 7.49998V3.29998L0 5.29998V9.49998C25.3 9.19998 30.4 10.6 30.4 24.1V87.4C30.4 114.6 49.7 125.7 72.5 125.4L136.9 124.5C165.8 124.1 179.8 106.6 179.8 78.4V62.1C183.9 0.799976 227.9 6.29998 243.8 6.09998H245V103.8C245 117.3 239.5 118.9 212.3 119.3V123.5L348.1 121.6V117.4C320.9 117.8 315.4 116.3 315.4 102.8V5.09998H316.6C333.5 4.89998 358.2 21.8 381.7 57.7H383.3V0.0999756L209.8 2.49998V2.39998Z" fill="white"/>
<path d="M362.1 99.5C362.1 91.8 363.9 85.9 367.6 81.8C371.2 77.6 375.8 75.5 381.2 75.4C384.7 75.4 387.9 76.2 390.8 78C393.7 79.8 396 82.4 397.7 85.9C399.4 89.4 400.2 93.5 400.2 98.4C400.2 105.1 398.6 110.5 395.3 114.7C391.7 119.4 387 121.7 381.2 121.8C375.3 121.8 370.6 119.6 367 114.9C363.8 110.7 362.1 105.5 362.1 99.4V99.5ZM367.6 99.5C367.6 105 368.9 109.3 371.6 112.3C374.2 115.3 377.4 116.8 381.2 116.8C385.1 116.8 388.3 115.2 390.9 112C393.5 108.9 394.8 104.3 394.8 98.3C394.8 94.4 394.1 91 392.8 88C391.8 85.7 390.2 83.8 388.1 82.5C386 81.1 383.7 80.5 381.3 80.5C377.3 80.5 374.1 82.1 371.5 85.2C368.9 88.3 367.6 93.1 367.6 99.5Z" fill="white"/>
<path d="M406 120.8V75.9H411.3V98.2L431.1 75.7H438.2L421.5 94L438.9 120.4H431.9L417.8 98L411.2 105.2V120.8H405.9H406Z" fill="white"/>
<path d="M455.7 120.1V101.1L440.4 75.4H446.8L454.6 88.8C456.1 91.5 457.5 94 458.7 96.3C459.9 93.9 461.3 91.3 463 88.3L470.7 75H476.8L460.9 101V120H455.6L455.7 120.1Z" fill="white"/>
<path d="M475.9 98C475.9 90.3 477.7 84.4 481.4 80.3C485 76.1 489.6 74 495 73.9C498.5 73.9 501.7 74.7 504.6 76.5C507.5 78.3 509.8 80.9 511.5 84.4C513.2 87.9 514 92 514 96.9C514 103.6 512.4 109 509.1 113.2C505.5 117.9 500.8 120.2 495 120.3C489.1 120.3 484.4 118.1 480.8 113.4C477.6 109.2 475.9 104 475.9 97.9V98ZM481.3 98C481.3 103.5 482.6 107.8 485.3 110.8C487.9 113.8 491.1 115.3 494.9 115.3C498.8 115.3 502 113.7 504.6 110.5C507.2 107.4 508.5 102.8 508.5 96.8C508.5 92.9 507.8 89.5 506.5 86.5C505.5 84.2 503.9 82.3 501.8 81C499.7 79.6 497.4 79 495 79C491 79 487.8 80.6 485.2 83.7C482.6 86.8 481.3 91.6 481.3 98Z" fill="white"/>
<path d="M85.3 199.9C83.2 195.7 79.3 193.6 73.7 193.6C70.6 193.6 68 194.6 66 196.3C64 198.1 62.4 200.9 61.3 204.9C60.1 208.8 59.3 214 58.9 220.3C58.4 226.6 58.2 234.4 58.2 243.5C58.2 253.3 58.5 261.2 59.1 267.2C59.7 273.2 60.7 277.9 62 281.2C63.3 284.5 65 286.7 67 287.8C69 288.9 71.3 289.5 74 289.4C76.2 289.4 78.2 289 80.1 288.1C82 287.3 83.6 285.7 85 283.3C86.4 280.9 87.5 277.6 88.3 273.3C89.1 269 89.5 263.4 89.5 256.4L114.3 256.1C114.3 263.1 113.8 269.7 112.7 276C111.7 282.3 109.7 287.8 106.9 292.5C104.1 297.2 100.1 301 95 303.7C89.9 306.4 83.2 307.8 75.1 308C65.8 308.1 58.4 306.7 52.9 303.6C47.4 300.5 43.2 296.1 40.2 290.2C37.3 284.3 35.4 277.3 34.5 269.1C33.6 260.9 33.2 251.9 33.2 242C33.2 232.2 33.6 223.2 34.5 215C35.4 206.7 37.3 199.6 40.2 193.7C43.1 187.8 47.4 183.1 52.9 179.7C58.4 176.3 65.8 174.5 75.1 174.4C83.9 174.3 90.9 175.7 96 178.6C101.1 181.5 104.9 185.3 107.5 189.9C110 194.5 111.6 199.5 112.2 204.8C112.8 210.2 113.1 215.2 113.1 219.9L88.3 220.2C88.3 210.8 87.2 204 85.1 199.7L85.3 199.9Z" fill="white"/>
<path d="M170.5 175.6C180.8 175.5 188.9 178.1 194.6 183.5C200.3 188.9 203.2 197.2 203.2 208.4C203.2 217.1 201.5 224.2 198.2 229.7C194.9 235.2 189.7 238.8 182.7 240.5V240.9C188.9 241.8 193.4 243.8 196.3 247C199.2 250.2 201 255.4 201.6 262.7C201.8 265.1 202 267.7 202.1 270.6C202.2 273.4 202.3 276.6 202.4 280.1C202.6 287 203 292.2 203.4 295.8C204.1 299.4 205.6 301.9 207.9 303.1V304.2L181 304.6C179.7 302.8 178.9 300.7 178.6 298.4C178.3 296.1 178 293.6 177.9 291.1L177.2 266.3C177 261.2 175.8 257.3 173.6 254.4C171.4 251.5 167.7 250.1 162.6 250.2L149.3 250.4V305L124.5 305.3V176.2L170.4 175.6H170.5ZM159.8 232.2C165.8 232.2 170.4 230.6 173.6 227.6C176.8 224.6 178.4 219.6 178.4 212.6C178.4 200.7 172.7 194.8 161.2 194.9L149.5 195.1V232.3L159.8 232.2Z" fill="white"/>
<path d="M286.2 195.4L242.2 196V226.4L283.6 225.8V247.1L242.2 247.7V282.4L287.9 281.8V303.1L217.4 304.1V175L286.2 174V195.3V195.4Z" fill="white"/>
<path d="M356.7 173.1L389.3 301.7L363.4 302.1L357.7 274.9L324.9 275.4L319.2 302.8L293.3 303.2L325.9 173.7L356.6 173.3L356.7 173.1ZM353.4 253.6L341.5 195.7H341.2L329.3 253.9L353.4 253.6Z" fill="white"/>
<path d="M457.9 193L431 193.4V301.1L406.2 301.4V193.7L379.3 194.1V172.8L457.9 171.7V193Z" fill="white"/>
<path d="M467.1 171.5L491.9 171.2V300.3L467.1 300.6V171.5Z" fill="white"/>
<path d="M544.1 265.9H544.6L562.9 170.2L588.6 169.8L560.3 299.3L528.4 299.7L500.1 171L526.6 170.6L544 265.8L544.1 265.9Z" fill="white"/>
<path d="M665.3 190.1L621.3 190.7V221.1L662.7 220.5V241.8L621.3 242.4V277.1L667 276.5V297.8L596.5 298.8V169.7L665.3 168.7V190V190.1Z" fill="white"/>
</g>
</svg>
