<?xml version="1.0" encoding="UTF-8"?><svg xmlns="http://www.w3.org/2000/svg" viewBox="0 0 667 308"><g style="isolation:isolate;"><g id="_レイヤー_2"><g id="_レイヤー_1-2"><g style="mix-blend-mode:color-dodge;"><path d="M209.8,2.4l-32.7.5-28.7.4v4.2c21.8-.3,26.9,6.4,26.9,19.9v51.2c0,21.6-8.8,40.6-34.7,41s-32.2-18.1-32.2-40.2V25.8c0-15.7,5.6-17.9,33.5-18.3V3.3S0,5.3,0,5.3v4.2c25.3-.3,30.4,1.1,30.4,14.6v63.3c0,27.2,19.3,38.3,42.1,38l64.4-.9c28.9-.4,42.9-17.9,42.9-46.1v-16.3C183.9.8,227.9,6.3,243.8,6.1h1.2s0,97.7,0,97.7c0,13.5-5.5,15.1-32.7,15.5v4.2s135.8-1.9,135.8-1.9v-4.2c-27.2.4-32.7-1.1-32.7-14.6V5.1s1.2,0,1.2,0c16.9-.2,41.6,16.7,65.1,52.6h1.6s0-57.6,0-57.6l-173.5,2.4Z"/><path d="M362.1,99.5c0-7.7,1.8-13.6,5.5-17.7,3.6-4.2,8.2-6.3,13.6-6.4,3.5,0,6.7.8,9.6,2.6,2.9,1.8,5.2,4.4,6.9,7.9,1.7,3.5,2.5,7.6,2.5,12.5,0,6.7-1.6,12.1-4.9,16.3-3.6,4.7-8.3,7-14.1,7.1-5.9,0-10.6-2.2-14.2-6.9-3.2-4.2-4.9-9.4-4.9-15.5ZM367.6,99.5c0,5.5,1.3,9.8,4,12.8,2.6,3,5.8,4.5,9.6,4.5,3.9,0,7.1-1.6,9.7-4.8,2.6-3.1,3.9-7.7,3.9-13.7,0-3.9-.7-7.3-2-10.3-1-2.3-2.6-4.2-4.7-5.5-2.1-1.4-4.4-2-6.8-2-4,0-7.2,1.6-9.8,4.7-2.6,3.1-3.9,7.9-3.9,14.3Z"/><path d="M406,120.8v-44.9s5.3,0,5.3,0v22.3s19.8-22.5,19.8-22.5h7.1c0,0-16.7,18.3-16.7,18.3l17.4,26.4h-7c0,0-14.1-22.4-14.1-22.4l-6.6,7.2v15.6s-5.3,0-5.3,0Z"/><path d="M455.7,120.1v-19s-15.3-25.7-15.3-25.7h6.4c0,0,7.8,13.4,7.8,13.4,1.5,2.7,2.9,5.2,4.1,7.5,1.2-2.4,2.6-5,4.3-8l7.7-13.3h6.1c0,0-15.9,26-15.9,26v19s-5.3,0-5.3,0Z"/><path d="M475.9,98c0-7.7,1.8-13.6,5.5-17.7,3.6-4.2,8.2-6.3,13.6-6.4,3.5,0,6.7.8,9.6,2.6,2.9,1.8,5.2,4.4,6.9,7.9,1.7,3.5,2.5,7.6,2.5,12.5,0,6.7-1.6,12.1-4.9,16.3-3.6,4.7-8.3,7-14.1,7.1-5.9,0-10.6-2.2-14.2-6.9-3.2-4.2-4.9-9.4-4.9-15.5ZM481.3,98c0,5.5,1.3,9.8,4,12.8,2.6,3,5.8,4.5,9.6,4.5,3.9,0,7.1-1.6,9.7-4.8,2.6-3.1,3.9-7.7,3.9-13.7,0-3.9-.7-7.3-2-10.3-1-2.3-2.6-4.2-4.7-5.5-2.1-1.4-4.4-2-6.8-2-4,0-7.2,1.6-9.8,4.7-2.6,3.1-3.9,7.9-3.9,14.3Z"/><path d="M85.3,199.9c-2.1-4.2-6-6.3-11.6-6.3-3.1,0-5.7,1-7.7,2.7-2,1.8-3.6,4.6-4.7,8.6-1.2,3.9-2,9.1-2.4,15.4-.5,6.3-.7,14.1-.7,23.2,0,9.8.3,17.7.9,23.7.6,6,1.6,10.7,2.9,14,1.3,3.3,3,5.5,5,6.6,2,1.1,4.3,1.7,7,1.6,2.2,0,4.2-.4,6.1-1.3,1.9-.8,3.5-2.4,4.9-4.8s2.5-5.7,3.3-10c.8-4.3,1.2-9.9,1.2-16.9l24.8-.3c0,7-.5,13.6-1.6,19.9-1,6.3-3,11.8-5.8,16.5-2.8,4.7-6.8,8.5-11.9,11.2-5.1,2.7-11.8,4.1-19.9,4.3-9.3.1-16.7-1.3-22.2-4.4-5.5-3.1-9.7-7.5-12.7-13.4-2.9-5.9-4.8-12.9-5.7-21.1-.9-8.2-1.3-17.2-1.3-27.1,0-9.8.4-18.8,1.3-27,.9-8.3,2.8-15.4,5.7-21.3,2.9-5.9,7.2-10.6,12.7-14,5.5-3.4,12.9-5.2,22.2-5.3,8.8-.1,15.8,1.3,20.9,4.2,5.1,2.9,8.9,6.7,11.5,11.3,2.5,4.6,4.1,9.6,4.7,14.9.6,5.4.9,10.4.9,15.1l-24.8.3c0-9.4-1.1-16.2-3.2-20.5Z"/><path d="M170.5,175.6c10.3-.1,18.4,2.5,24.1,7.9,5.7,5.4,8.6,13.7,8.6,24.9,0,8.7-1.7,15.8-5,21.3-3.3,5.5-8.5,9.1-15.5,10.8v.4c6.2.9,10.7,2.9,13.6,6.1,2.9,3.2,4.7,8.4,5.3,15.7.2,2.4.4,5,.5,7.9.1,2.8.2,6,.3,9.5.2,6.9.6,12.1,1,15.7.7,3.6,2.2,6.1,4.5,7.3v1.1l-26.9.4c-1.3-1.8-2.1-3.9-2.4-6.2-.3-2.3-.6-4.8-.7-7.3l-.7-24.8c-.2-5.1-1.4-9-3.6-11.9-2.2-2.9-5.9-4.3-11-4.2l-13.3.2v54.6s-24.8.3-24.8.3v-129.1s45.9-.6,45.9-.6ZM159.8,232.2c6,0,10.6-1.6,13.8-4.6,3.2-3,4.8-8,4.8-15,0-11.9-5.7-17.8-17.2-17.7l-11.7.2v37.2s10.3-.1,10.3-.1Z"/><path d="M286.2,195.4l-44,.6v30.4s41.4-.6,41.4-.6v21.3s-41.4.6-41.4.6v34.7s45.7-.6,45.7-.6v21.3s-70.5,1-70.5,1v-129.1s68.8-1,68.8-1v21.3Z"/><path d="M356.7,173.1l32.6,128.6-25.9.4-5.7-27.2-32.8.5-5.7,27.4-25.9.4,32.6-129.5,30.7-.4ZM353.4,253.6l-11.9-57.9h-.3s-11.9,58.2-11.9,58.2l24.1-.3Z"/><path d="M457.9,193l-26.9.4v107.7s-24.8.3-24.8.3v-107.7s-26.9.4-26.9.4v-21.3s78.6-1.1,78.6-1.1v21.3Z"/><path d="M467.1,171.5l24.8-.3v129.1s-24.8.3-24.8.3v-129.1Z"/><path d="M544.1,265.9h.5s18.3-95.7,18.3-95.7l25.7-.4-28.3,129.5-31.9.4-28.3-128.7,26.5-.4,17.4,95.2Z"/><path d="M665.3,190.1l-44,.6v30.4s41.4-.6,41.4-.6v21.3s-41.4.6-41.4.6v34.7s45.7-.6,45.7-.6v21.3s-70.5,1-70.5,1v-129.1s68.8-1,68.8-1v21.3Z"/></g></g></g></g></svg>